<svg width="58" height="58" viewBox="0 0 58 58" fill="none" xmlns="http://www.w3.org/2000/svg">
<g clip-path="url(#clip0_2873_5534)">
<path d="M44.6447 0H13.3553C5.97936 0 0 5.97936 0 13.3553V44.6447C0 52.0206 5.97936 58 13.3553 58H44.6447C52.0206 58 58 52.0206 58 44.6447V13.3553C58 5.97936 52.0206 0 44.6447 0Z" fill="#F44336"/>
<path d="M58.0006 42.356V44.47C57.9855 48.0566 56.553 51.4917 54.0155 54.0264C51.4779 56.5611 48.0412 57.9897 44.4546 58.0008H42.6382L27.688 43.0505C27.31 42.8308 26.9957 42.5165 26.776 42.1385L15.7713 31.1338C15.2876 30.8429 14.9123 30.4018 14.7027 29.8777C14.493 29.3537 14.4605 28.7755 14.6101 28.2312C14.7596 27.687 15.0831 27.2066 15.5311 26.8633C15.9791 26.5199 16.5271 26.3326 17.0915 26.3297H25.8946C25.9623 26.3302 26.0296 26.3172 26.0923 26.2915C26.155 26.2658 26.212 26.2279 26.2599 26.18C26.3079 26.132 26.3458 26.075 26.3715 26.0123C26.3972 25.9496 26.4102 25.8824 26.4097 25.8146V17.0001C26.4111 16.4788 26.5699 15.9702 26.8653 15.5407C27.1608 15.1113 27.579 14.7811 28.0653 14.5934C28.5516 14.4058 29.0833 14.3694 29.5906 14.489C30.0979 14.6086 30.5573 14.8787 30.9085 15.2639L42.5657 26.925L42.4818 26.8639C42.5352 26.9059 42.5925 26.9517 42.6421 26.9975C42.7062 27.0501 42.7649 27.1089 42.8176 27.173L58.0006 42.356Z" fill="url(#paint0_linear_2873_5534)"/>
<path d="M43.5 28.9082C43.5 29.2484 43.433 29.5854 43.3028 29.8997C43.1726 30.2141 42.9817 30.4997 42.7411 30.7403C42.5005 30.9809 42.2149 31.1717 41.9006 31.3019C41.5862 31.4321 41.2493 31.4991 40.9091 31.4991H32.1061C32.0383 31.4986 31.971 31.5116 31.9083 31.5373C31.8456 31.563 31.7886 31.6009 31.7407 31.6489C31.6927 31.6968 31.6548 31.7538 31.6291 31.8165C31.6034 31.8793 31.5904 31.9465 31.5909 32.0143V40.8287C31.5909 41.5159 31.3179 42.1749 30.8321 42.6608C30.3462 43.1467 29.6872 43.4196 29 43.4196C28.3128 43.4196 27.6538 43.1467 27.1679 42.6608C26.6821 42.1749 26.4091 41.5159 26.4091 40.8287V32.0143C26.4096 31.9465 26.3966 31.8793 26.3709 31.8165C26.3452 31.7538 26.3073 31.6968 26.2593 31.6489C26.2114 31.6009 26.1544 31.563 26.0917 31.5373C26.029 31.5116 25.9617 31.4986 25.8939 31.4991H17.0909C16.7507 31.4991 16.4138 31.4321 16.0994 31.3019C15.7851 31.1717 15.4995 30.9809 15.2589 30.7403C15.0183 30.4997 14.8274 30.2141 14.6972 29.8997C14.567 29.5854 14.5 29.2484 14.5 28.9082C14.5 28.568 14.567 28.231 14.6972 27.9167C14.8274 27.6024 15.0183 27.3167 15.2589 27.0761C15.4995 26.8356 15.7851 26.6447 16.0994 26.5145C16.4138 26.3843 16.7507 26.3173 17.0909 26.3173H25.8939C25.9617 26.3178 26.029 26.3048 26.0917 26.2791C26.1544 26.2534 26.2114 26.2155 26.2593 26.1675C26.3073 26.1196 26.3452 26.0626 26.3709 25.9999C26.3966 25.9372 26.4096 25.8699 26.4091 25.8022V16.9991C26.4091 16.312 26.6821 15.653 27.1679 15.1671C27.6538 14.6812 28.3128 14.4082 29 14.4082C29.6872 14.4082 30.3462 14.6812 30.8321 15.1671C31.3179 15.653 31.5909 16.312 31.5909 16.9991V25.8022C31.5889 25.8709 31.6007 25.9393 31.6257 26.0034C31.6507 26.0675 31.6884 26.1258 31.7365 26.175C31.7846 26.2242 31.8421 26.2631 31.9056 26.2895C31.9691 26.3159 32.0373 26.3293 32.1061 26.3287H40.9091C41.5943 26.3287 42.2515 26.6001 42.7371 27.0835C43.2227 27.567 43.497 28.223 43.5 28.9082Z" fill="white"/>
</g>
<defs>
<linearGradient id="paint0_linear_2873_5534" x1="21.2126" y1="21.1212" x2="54.0665" y2="53.9751" gradientUnits="userSpaceOnUse">
<stop stop-color="#B71C1C"/>
<stop offset="1" stop-color="#B71C1C" stop-opacity="0"/>
</linearGradient>
<clipPath id="clip0_2873_5534">
<rect width="58" height="58" fill="white"/>
</clipPath>
</defs>
</svg>
