<svg width="32" height="32" viewBox="0 0 32 32" fill="none" xmlns="http://www.w3.org/2000/svg">
<path d="M30.6667 17.3053H1.33333C0.597331 17.3053 0 16.708 0 15.972C0 15.236 0.597331 14.6387 1.33333 14.6387H30.6667C31.4027 14.6387 32 15.236 32 15.972C32 16.708 31.4027 17.3053 30.6667 17.3053Z" fill="#91959B"/>
<path d="M30.6667 7.08464H1.33333C0.597331 7.08464 0 6.4873 0 5.7513C0 5.0153 0.597331 4.41797 1.33333 4.41797H30.6667C31.4027 4.41797 32 5.0153 32 5.7513C32 6.4873 31.4027 7.08464 30.6667 7.08464Z" fill="#91959B"/>
<path d="M30.6667 27.528H1.33333C0.597331 27.528 0 26.9307 0 26.1947C0 25.4587 0.597331 24.8613 1.33333 24.8613H30.6667C31.4027 24.8613 32 25.4587 32 26.1947C32 26.9307 31.4027 27.528 30.6667 27.528Z" fill="#91959B"/>
</svg>
