<svg width="32" height="32" viewBox="0 0 32 32" fill="none" xmlns="http://www.w3.org/2000/svg">
<path d="M29.2278 30.6634L27.2806 8.97816C27.2275 8.38596 26.7311 7.93235 26.1366 7.93235H22.1211V6.12128C22.1211 2.74601 19.3752 0 16.0001 0C12.6251 0 9.87957 2.74601 9.87957 6.12128V7.93235H5.86125C5.26675 7.93235 4.77042 8.38596 4.71728 8.97816L2.76241 30.7487C2.73361 31.07 2.84112 31.3883 3.05874 31.6263C3.27635 31.8643 3.58402 31.9998 3.90638 31.9998H28.0916C28.0926 31.9998 28.0938 31.9998 28.0947 31.9998C28.7292 31.9998 29.2433 31.4856 29.2433 30.8513C29.2431 30.7874 29.2379 30.7245 29.2278 30.6634ZM12.1767 6.12128C12.1767 4.01265 13.8919 2.29715 16.0002 2.29715C18.1087 2.29715 19.8241 4.01265 19.8241 6.12128V7.93235H12.1767V6.12128ZM5.16277 29.7029L6.91136 10.2295H9.87957V12.2834C9.87957 12.9178 10.3937 13.432 11.0281 13.432C11.6626 13.432 12.1767 12.9178 12.1767 12.2834V10.2295H19.8241V12.2834C19.8241 12.9178 20.3382 13.432 20.9726 13.432C21.6071 13.432 22.1212 12.9178 22.1212 12.2834V10.2295H25.0867L26.8353 29.7029H5.16277Z" fill="#91959B"/>
</svg>
